<svg xmlns="http://www.w3.org/2000/svg" viewBox="0 0 424.88 391.35"><polygon points="422.26 31.53 209.23 79.76 214.84 391.35 424.88 314.65 422.26 31.53" fill="#b2753e"/><polygon points="0 45.74 209.23 79.76 214.84 391.34 11.38 328.18 0 45.74" fill="#c48d72"/><polygon points="121.06 19.6 328.4 53.03 422.26 31.53 219.55 0 121.06 19.6" fill="#b77f51"/><polygon points="209.24 79.77 0 45.74 121.06 19.6 328.65 52.58 209.24 79.77" fill="#b77f51"/><polygon points="94.4 25.32 299.81 59.78 348.06 48.53 146 14.64 94.4 25.32" fill="#9b6c49"/><polygon points="348.77 48.36 299.78 59.73 301.86 86.96 349.38 73.79 348.77 48.36" fill="#9b6c49"/><polygon points="397.44 236.96 263.82 275.27 263.82 182.3 397.44 143.98 397.44 236.96" fill="#ca1416"/><polygon points="393.96 216.64 267.3 252.96 267.3 212.75 393.96 176.43 393.96 216.64" fill="#d9c5c6"/><path d="M273.45,222.09l13.4-3.84V222l-8,2.28v3.06l6.8-2V229l-6.8,2v7.17l-5.44,1.56Z" fill="#ca1416"/><path d="M289.84,234.93V217.39l9-2.59a13.56,13.56,0,0,1,3.84-.67,2.83,2.83,0,0,1,2.14,1,3.8,3.8,0,0,1,.82,2.61,5.89,5.89,0,0,1-.63,2.7,7.35,7.35,0,0,1-1.71,2.21,9.19,9.19,0,0,1-1.9,1.23,4.24,4.24,0,0,1,1.41.25,3.45,3.45,0,0,1,.87.67,4.5,4.5,0,0,1,.76.87l2.62,4.33L301,231.74l-2.9-4.53a2.65,2.65,0,0,0-1-1.07,2,2,0,0,0-1.33,0l-.48.14v7.12Zm5.44-12,2.29-.66a11,11,0,0,0,1.43-.65,2.18,2.18,0,0,0,.88-.8,2,2,0,0,0,.34-1.12,1.2,1.2,0,0,0-.54-1.15,3,3,0,0,0-2,.13l-2.38.68Z" fill="#ca1416"/><path d="M319.61,223.5l-6.16,1.76-.85,3.14L307.07,230l6.59-19.43,5.91-1.7,6.59,15.65-5.68,1.63ZM318.48,220l-1.93-5.75-1.92,6.85Z" fill="#ca1416"/><path d="M336.26,215.27v-3.65l8.37-2.41v7.48a24.53,24.53,0,0,1-4.25,3.45A17.57,17.57,0,0,1,336,222a10,10,0,0,1-5.09.4,4.83,4.83,0,0,1-3-2.3,8.62,8.62,0,0,1-1.08-4.52,12.21,12.21,0,0,1,1.19-5.34,11.54,11.54,0,0,1,3.46-4.21,14.5,14.5,0,0,1,4.8-2.23,13.39,13.39,0,0,1,4.35-.72,3.92,3.92,0,0,1,2.39,1,5,5,0,0,1,1.43,2.39l-5.22,2.43a1.89,1.89,0,0,0-1.1-1.2,3.09,3.09,0,0,0-2,0,5,5,0,0,0-2.84,2A7.32,7.32,0,0,0,332.2,214c0,1.9.36,3.15,1.07,3.76a3.1,3.1,0,0,0,3,.37,7.59,7.59,0,0,0,1.73-.76,14.86,14.86,0,0,0,1.89-1.44v-1.65Z" fill="#ca1416"/><path d="M348.07,200.69l5.43-1.55v17.54l-5.43,1.55Z" fill="#ca1416"/><path d="M357.39,198l5.42-1.55v13.22l8.45-2.43v4.32l-13.87,4Z" fill="#ca1416"/><path d="M373.72,193.34l14.52-4.17v3.75l-9.09,2.6v2.79l8.43-2.42v3.58l-8.43,2.42v3.46l9.36-2.69v4l-14.79,4.24Z" fill="#ca1416"/><path d="M304.4,185.16l-2.1.6,2.13-10.82,4.15-1.19a4.79,4.79,0,0,1,1.75-.24,1.43,1.43,0,0,1,1,.57,2.16,2.16,0,0,1,.38,1.33,4.56,4.56,0,0,1-.3,1.59,5,5,0,0,1-.73,1.38,4.92,4.92,0,0,1-.94.94,6.83,6.83,0,0,1-1.35.73,19.43,19.43,0,0,1-1.85.6l-1.35.39Zm1.16-5.92.65-.18a9,9,0,0,0,2.22-.85,2.76,2.76,0,0,0,.88-.92,2.2,2.2,0,0,0,.32-1.1.83.83,0,0,0-.17-.56.63.63,0,0,0-.46-.21,4.81,4.81,0,0,0-1.32.27l-1.5.43Z" fill="#d9c5c6"/><path d="M311.87,183,314,172.2l2.09-.6-1.77,9,5.19-1.49-.35,1.81Z" fill="#d9c5c6"/><path d="M320.52,180.54l2.14-10.82,7.56-2.17-.35,1.81-5.47,1.56-.48,2.46,5.28-1.51-.35,1.8-5.29,1.52-.64,2.95,5.94-1.7-.36,1.81Z" fill="#d9c5c6"/><path d="M336.72,173.64l-4.05,1.16-1.22,2.6-2.16.62,5.77-11.86,2.34-.67,1.65,9.73-2,.58Zm-.26-1.63-.59-3.94-2.46,4.82Z" fill="#d9c5c6"/><path d="M340.65,171.46l2-.68A1.76,1.76,0,0,0,343,172c.31.28.87.3,1.7.06a3.16,3.16,0,0,0,1.49-.8,1.48,1.48,0,0,0,.46-1,.71.71,0,0,0-.38-.66,5.68,5.68,0,0,0-1.45-.33,9.43,9.43,0,0,1-1.73-.36,1.61,1.61,0,0,1-.86-.65,2,2,0,0,1-.32-1.19,3.67,3.67,0,0,1,.94-2.41,5.27,5.27,0,0,1,2.7-1.62,3.61,3.61,0,0,1,2.78,0,2.21,2.21,0,0,1,1.08,1.93l-2,.67a1.18,1.18,0,0,0-.53-1,1.82,1.82,0,0,0-1.34,0,2.62,2.62,0,0,0-1.24.67,1.28,1.28,0,0,0-.37.88.64.64,0,0,0,.34.62,5,5,0,0,0,1.51.37,6.28,6.28,0,0,1,2.24.59,1.78,1.78,0,0,1,.72,1.58,4,4,0,0,1-1.07,2.62,5.92,5.92,0,0,1-3,1.81,5.19,5.19,0,0,1-2.28.21,1.85,1.85,0,0,1-1.36-.84A3.25,3.25,0,0,1,340.65,171.46Z" fill="#d9c5c6"/><path d="M349.85,172.13,352,161.31l7.56-2.17-.35,1.81-5.47,1.57-.48,2.45,5.28-1.51-.35,1.81-5.29,1.51-.64,3,5.94-1.71-.36,1.81Z" fill="#d9c5c6"/><path d="M274.44,202.75l-3.42,1-.82,4.19-1.83.52,1.86-9.38,1.81-.52-.71,3.62,3.42-1,.72-3.62,1.81-.52-1.84,9.37-1.82.53Z" fill="#d9c5c6"/><path d="M283.06,202.27l-3.51,1-1.06,2.26-1.87.54,5-10.28,2-.58,1.44,8.43-1.73.49Zm-.22-1.4-.52-3.42-2.13,4.18Z" fill="#d9c5c6"/><path d="M293.26,201.3l-1.7.49-2.38-5.26-1.25,6.3-1.69.49,1.84-9.38,1.71-.48,2.39,5.23,1.24-6.28,1.69-.48Z" fill="#d9c5c6"/><path d="M295.14,200.76l1.86-9.37,2.38-.68c.66-.19,1.09-.31,1.27-.34a3.39,3.39,0,0,1,1-.06,2.09,2.09,0,0,1,.79.25,2,2,0,0,1,.6.56,2.49,2.49,0,0,1,.4.87,4.74,4.74,0,0,1,.14,1.19,6.61,6.61,0,0,1-.55,2.69,7.4,7.4,0,0,1-1.37,2.15,6,6,0,0,1-1.63,1.22,10.18,10.18,0,0,1-1.75.63Zm2.12-2,.92-.26a7,7,0,0,0,1.45-.54,3,3,0,0,0,.83-.7,5.6,5.6,0,0,0,.9-1.56,5.32,5.32,0,0,0,.37-2,2.21,2.21,0,0,0-.3-1.32,1,1,0,0,0-.75-.42,4.2,4.2,0,0,0-1.12.21l-1.06.31Z" fill="#d9c5c6"/><path d="M304.08,198.2l1.86-9.37,1.81-.53-1.54,7.81,4.5-1.29-.3,1.57Z" fill="#d9c5c6"/><path d="M311.58,196.05l1.85-9.37L320,184.8l-.31,1.56-4.74,1.36-.42,2.13,4.58-1.31-.31,1.56-4.58,1.32-.55,2.56,5.14-1.48-.31,1.57Z" fill="#d9c5c6"/><path d="M331.67,190.29l-1.84.53-.2-6.41-3.22,7.39-1.88.54-.33-8.75,1.78-.51.08,6.17,3-7.06,2-.57.21,6.07,2.91-7,1.76-.51Z" fill="#d9c5c6"/><path d="M334.84,189.38l1.85-9.37,1.82-.52-1.85,9.37Z" fill="#d9c5c6"/><path d="M342.2,187.27l-1.82.52,1.54-7.81-2.59.75.31-1.57,7-2-.3,1.57-2.56.73Z" fill="#d9c5c6"/><path d="M352,180.51l-3.42,1-.83,4.19-1.82.52,1.85-9.37,1.82-.52-.72,3.62,3.43-1,.71-3.62,1.82-.52L353,184.18l-1.82.52Z" fill="#d9c5c6"/><path d="M364.66,177.64l1.84-.24a6.94,6.94,0,0,1-1.62,2.74,5.55,5.55,0,0,1-2.51,1.5,2.71,2.71,0,0,1-2.54-.25,3.08,3.08,0,0,1-.91-2.57,7.33,7.33,0,0,1,.61-2.93,6.67,6.67,0,0,1,1.7-2.41,6,6,0,0,1,2.36-1.34,2.94,2.94,0,0,1,2.33.11,2.24,2.24,0,0,1,1,1.79l-1.74.67a1.33,1.33,0,0,0-.56-1,1.45,1.45,0,0,0-1.1,0,3.19,3.19,0,0,0-1.41.86,4.5,4.5,0,0,0-1,1.74,6.07,6.07,0,0,0-.39,2.05,1.89,1.89,0,0,0,.51,1.5,1.28,1.28,0,0,0,1.27.21,2.78,2.78,0,0,0,1.29-.83A3.74,3.74,0,0,0,364.66,177.64Z" fill="#d9c5c6"/><path d="M373,176.49l-3.51,1-1.06,2.26-1.87.53,5-10.27,2-.58,1.44,8.43-1.73.49Zm-.22-1.4-.52-3.42-2.13,4.18Z" fill="#d9c5c6"/><path d="M378,177l-1.82.52,1.85-9.38,3.92-1.12a4.68,4.68,0,0,1,1.58-.25,1.23,1.23,0,0,1,.91.51,2,2,0,0,1,.35,1.24,3.44,3.44,0,0,1-.68,2.06,4.64,4.64,0,0,1-2,1.49,2.47,2.47,0,0,1,.66.64,15.6,15.6,0,0,1,1.35,2.54l-2,.56a20.87,20.87,0,0,0-.92-2.07,1.83,1.83,0,0,0-.8-.92,1.59,1.59,0,0,0-.9.08l-.75.22Zm1-5.29,1-.28a8.34,8.34,0,0,0,1.94-.73,2.36,2.36,0,0,0,.75-.76,1.72,1.72,0,0,0,.27-.87.57.57,0,0,0-.39-.61,2.28,2.28,0,0,0-1,.16l-2,.57Z" fill="#d9c5c6"/><path d="M385,175l1.85-9.37,6.56-1.88-.31,1.56-4.74,1.36-.42,2.13,4.58-1.31-.31,1.57-4.58,1.31-.55,2.56,5.14-1.48-.31,1.57Z" fill="#d9c5c6"/><path d="M311.23,253.51V248.9l-1.72.5v-.62l4.14-1.19v.62l-1.73.49v4.61Z" fill="#d9c5c6"/><path d="M314.38,252.61v-5.23l.69-.2v2.15l2.72-.78V246.4l.69-.19v5.22l-.69.2v-2.46l-2.72.78v2.46Z" fill="#d9c5c6"/><path d="M319.06,251.27l2-5.8.75-.22,2.14,4.61-.79.23-.61-1.41-2.18.63-.58,1.75Zm1.5-2.58,1.78-.51-.55-1.29a9.45,9.45,0,0,1-.37-1,8.58,8.58,0,0,1-.28,1.08Z" fill="#d9c5c6"/><path d="M324.49,249.71v-5.23l.71-.2,2.75,3.31v-4.1l.66-.19v5.23l-.71.2-2.74-3.32v4.11Z" fill="#d9c5c6"/><path d="M329.74,248.2V243l.69-.2v2.59L333,242l.94-.26-2.2,2.74,2.29,2.45-.91.27-1.86-2.12-.86,1.08V248Z" fill="#d9c5c6"/><path d="M338,245.83v-2.21l-2-2.44.84-.24,1,1.28c.19.24.36.49.53.73.15-.31.34-.68.57-1.08l1-1.83.81-.23-2.09,3.61v2.21Z" fill="#d9c5c6"/><path d="M341.19,242.37a3.66,3.66,0,0,1,.7-2.23,3.34,3.34,0,0,1,1.81-1.26,2.23,2.23,0,0,1,1.3,0,1.53,1.53,0,0,1,.89.71,2.68,2.68,0,0,1,.3,1.32,3.56,3.56,0,0,1-.32,1.51,3.23,3.23,0,0,1-.91,1.21,3.37,3.37,0,0,1-1.27.69,2.21,2.21,0,0,1-1.32,0,1.49,1.49,0,0,1-.88-.72A2.42,2.42,0,0,1,341.19,242.37Zm.72-.19a1.59,1.59,0,0,0,.51,1.34,1.32,1.32,0,0,0,1.27.18,2.36,2.36,0,0,0,1.29-.92,2.85,2.85,0,0,0,.5-1.7,2.18,2.18,0,0,0-.22-1.05,1.08,1.08,0,0,0-.63-.56,1.55,1.55,0,0,0-.93,0,2.49,2.49,0,0,0-1.26.86A2.82,2.82,0,0,0,341.91,242.18Z" fill="#d9c5c6"/><path d="M350.51,237l.69-.2v3a4.27,4.27,0,0,1-.17,1.3,2.25,2.25,0,0,1-.65.94,2.89,2.89,0,0,1-1.22.64,2.35,2.35,0,0,1-1.2.09,1,1,0,0,1-.67-.54,3.09,3.09,0,0,1-.2-1.25v-3l.7-.2v3a2.78,2.78,0,0,0,.12,1,.66.66,0,0,0,.44.37,1.41,1.41,0,0,0,.75,0,2,2,0,0,0,1.09-.66,2.48,2.48,0,0,0,.32-1.42Z" fill="#d9c5c6"/><path d="M302,253.48l.16-.55a3.83,3.83,0,0,1,.82.11c0-.42-.07-.71-.07-.87l.52-.15c0,.24,0,.54-.08.91a7.63,7.63,0,0,1,.84-.58l.16.46a6.77,6.77,0,0,1-.89.45,4.16,4.16,0,0,1,.62.5l-.43.42a5,5,0,0,1-.49-.62,9,9,0,0,1-.46.9l-.42-.19c.27-.41.47-.69.59-.84C302.55,253.46,302.26,253.48,302,253.48Z" fill="#d9c5c6"/><path d="M304.83,252.67l.16-.56a5.83,5.83,0,0,1,.82.11c0-.41-.06-.7-.07-.86l.52-.15c0,.24,0,.54-.08.91a7.63,7.63,0,0,1,.84-.59l.16.46a5.73,5.73,0,0,1-.88.46,4,4,0,0,1,.61.49l-.43.43a6.13,6.13,0,0,1-.49-.63,7.23,7.23,0,0,1-.46.9l-.42-.18a8.72,8.72,0,0,1,.59-.84C305.39,252.65,305.1,252.66,304.83,252.67Z" fill="#d9c5c6"/><path d="M354.05,238.55l.16-.55a4.92,4.92,0,0,1,.83.11c-.05-.42-.07-.71-.08-.87l.52-.14c0,.23,0,.54-.08.9a7.63,7.63,0,0,1,.84-.58l.16.46a4.89,4.89,0,0,1-.88.45,4.21,4.21,0,0,1,.61.5l-.43.43a6.13,6.13,0,0,1-.49-.63,8,8,0,0,1-.46.9l-.42-.18c.28-.42.47-.7.59-.85C354.61,238.53,354.32,238.55,354.05,238.55Z" fill="#d9c5c6"/><path d="M356.89,237.74l.16-.55a4,4,0,0,1,.83.11,8.32,8.32,0,0,1-.07-.87l.51-.15c0,.24,0,.54-.08.91.24-.19.53-.39.84-.59l.16.46a5.73,5.73,0,0,1-.88.46,3.62,3.62,0,0,1,.61.5l-.43.42c-.13-.15-.3-.36-.49-.62a7.75,7.75,0,0,1-.46.89l-.42-.18c.28-.42.47-.7.59-.84C357.46,237.72,357.16,237.73,356.89,237.74Z" fill="#d9c5c6"/><polygon points="166.65 294.37 33.03 253.51 33.03 160.54 166.65 201.39 166.65 294.37" fill="#ca1416"/><polygon points="163.17 271.98 36.51 233.26 36.51 193.06 163.17 231.78 163.17 271.98" fill="#d9c5c6"/><path d="M42.66,206l13.4,4.1v3.77l-8-2.43v3.06l6.8,2.08v3.54l-6.8-2.08v7.17l-5.44-1.67Z" fill="#ca1416"/><path d="M59.05,228.59V211.05l9,2.76a16.1,16.1,0,0,1,3.84,1.6,6.33,6.33,0,0,1,2.14,2.25,6.06,6.06,0,0,1,.82,3.09,3.88,3.88,0,0,1-.63,2.33,3.13,3.13,0,0,1-1.71,1.2,5.69,5.69,0,0,1-1.9.11,7.74,7.74,0,0,1,1.41,1.08,8.51,8.51,0,0,1,.87,1.18,11.15,11.15,0,0,1,.76,1.32l2.62,5.89L70.18,232l-2.9-6.25a6.4,6.4,0,0,0-1-1.65,3.19,3.19,0,0,0-1.33-.81l-.48-.15v7.12Zm5.44-8.77,2.29.7a8.74,8.74,0,0,0,1.43.2,1,1,0,0,0,.88-.29,1.21,1.21,0,0,0,.34-.91,2.21,2.21,0,0,0-.53-1.47,4.44,4.44,0,0,0-2-1.07l-2.38-.73Z" fill="#ca1416"/><path d="M88.82,234.79l-6.15-1.88-.86,2.64-5.53-1.7,6.59-15.52,5.91,1.81,6.59,19.55L89.7,238Zm-1.13-4.13-1.93-6.9-1.92,5.72Z" fill="#ca1416"/><path d="M105.47,236.42v-3.64l8.37,2.56v7.47a12.73,12.73,0,0,1-4.25.94,15.09,15.09,0,0,1-4.38-.75,14.32,14.32,0,0,1-5.1-2.62,11.49,11.49,0,0,1-3-4.11A12.56,12.56,0,0,1,96,231.11a8.19,8.19,0,0,1,1.19-4.64,5,5,0,0,1,3.47-2.16,10.91,10.91,0,0,1,4.79.62,17.08,17.08,0,0,1,4.35,1.85,8.84,8.84,0,0,1,2.39,2.37,10.18,10.18,0,0,1,1.44,3.24l-5.23-.66a4.27,4.27,0,0,0-1.1-1.86,4.71,4.71,0,0,0-2-1.13,2.85,2.85,0,0,0-2.84.37c-.7.61-1.06,1.81-1.06,3.6a7.67,7.67,0,0,0,1.07,4.39,5.43,5.43,0,0,0,3,2.14,5.68,5.68,0,0,0,1.73.26,6.79,6.79,0,0,0,1.89-.32v-1.65Z" fill="#ca1416"/><path d="M117.28,228.85l5.43,1.66v17.54l-5.43-1.66Z" fill="#ca1416"/><path d="M126.6,231.7l5.42,1.65v13.23l8.46,2.58v4.32l-13.88-4.24Z" fill="#ca1416"/><path d="M142.93,236.69l14.52,4.44v3.75l-9.09-2.78v2.78l8.43,2.58V251l-8.43-2.58v3.46l9.36,2.86v4l-14.79-4.52Z" fill="#ca1416"/><path d="M73.61,187.44l-2.1-.64,2.13-9.55,4.15,1.27a6.18,6.18,0,0,1,1.76.79,3.43,3.43,0,0,1,1,1.18,3.28,3.28,0,0,1,.37,1.55,3.24,3.24,0,0,1-.3,1.41,2.36,2.36,0,0,1-.73,1,2.2,2.2,0,0,1-.94.38,4.72,4.72,0,0,1-1.35-.07,18.16,18.16,0,0,1-1.85-.5l-1.35-.41Zm1.16-5.22.65.19a7.69,7.69,0,0,0,2.22.47,1.18,1.18,0,0,0,.88-.4,1.33,1.33,0,0,0,.32-.91,1.39,1.39,0,0,0-.16-.65,1.53,1.53,0,0,0-.46-.49,6.37,6.37,0,0,0-1.32-.51l-1.51-.46Z" fill="#d9c5c6"/><path d="M81.08,189.73l2.14-9.56,2.09.65-1.77,8,5.19,1.59-.35,1.6Z" fill="#d9c5c6"/><path d="M89.74,192.37l2.13-9.55,7.57,2.31-.36,1.6-5.47-1.67-.48,2.17,5.28,1.61-.35,1.6-5.29-1.61-.64,2.57,5.94,1.82-.36,1.59Z" fill="#d9c5c6"/><path d="M105.93,195.07l-4-1.24-1.23,1.88-2.16-.65,5.77-8.45,2.34.72L108.26,198l-2-.61Zm-.26-1.78-.59-4.29-2.46,3.36Z" fill="#d9c5c6"/><path d="M109.87,195.22l2,.51a2.82,2.82,0,0,0,.33,1.39,3,3,0,0,0,1.7,1.06,2.19,2.19,0,0,0,1.49.09.79.79,0,0,0,.46-.76,1.35,1.35,0,0,0-.38-.88,11.07,11.07,0,0,0-1.45-1.18,21.46,21.46,0,0,1-1.73-1.39,4,4,0,0,1-.86-1.16,3.12,3.12,0,0,1-.32-1.39,2,2,0,0,1,.94-1.85,3.33,3.33,0,0,1,2.7,0,5.77,5.77,0,0,1,2.78,1.69,4.25,4.25,0,0,1,1.08,2.57l-2-.52a2.27,2.27,0,0,0-.53-1.28,2.73,2.73,0,0,0-1.33-.8,1.85,1.85,0,0,0-1.25-.08.68.68,0,0,0-.37.66,1.22,1.22,0,0,0,.34.83A10,10,0,0,0,115,194a13,13,0,0,1,2.24,1.92,3.18,3.18,0,0,1,.72,2,2.12,2.12,0,0,1-1.07,2,3.68,3.68,0,0,1-3,.05,7.17,7.17,0,0,1-2.28-1.14,4.21,4.21,0,0,1-1.37-1.65A4.44,4.44,0,0,1,109.87,195.22Z" fill="#d9c5c6"/><path d="M119.06,201.34l2.13-9.56,7.57,2.32-.36,1.59L122.93,194l-.48,2.17,5.28,1.62-.35,1.6-5.29-1.62-.64,2.58,5.94,1.81-.36,1.6Z" fill="#d9c5c6"/><path d="M43.65,187.28l-3.42-1-.82,3.7-1.82-.56,1.85-8.28,1.81.56-.71,3.19L44,185.9l.72-3.2,1.82.56-1.85,8.28L42.83,191Z" fill="#d9c5c6"/><path d="M52.27,191.91l-3.51-1.07-1.06,1.63-1.87-.57,5-7.31,2,.61,1.43,9.29L52.57,194Zm-.22-1.54-.52-3.71-2.13,2.91Z" fill="#d9c5c6"/><path d="M62.47,197l-1.69-.52-2.39-6.67-1.25,5.56-1.69-.52,1.85-8.28,1.7.52,2.39,6.65,1.24-5.54,1.69.52Z" fill="#d9c5c6"/><path d="M64.35,197.56l1.86-8.27,2.38.72c.66.21,1.09.35,1.27.42a5.05,5.05,0,0,1,1,.53,4.42,4.42,0,0,1,.79.71,4.62,4.62,0,0,1,1,2,5.72,5.72,0,0,1,.14,1.26,4.62,4.62,0,0,1-.55,2.37,2.91,2.91,0,0,1-3,1.59,9.17,9.17,0,0,1-1.75-.4Zm2.12-.77.92.28a6.74,6.74,0,0,0,1.46.32,1.46,1.46,0,0,0,.82-.21,2.49,2.49,0,0,0,.9-1,3.79,3.79,0,0,0,.37-1.8,3.24,3.24,0,0,0-.3-1.51,2.46,2.46,0,0,0-.75-.86,4.49,4.49,0,0,0-1.12-.45l-1.06-.32Z" fill="#d9c5c6"/><path d="M73.29,200.3,75.15,192l1.81.55-1.54,6.9,4.51,1.38-.31,1.38Z" fill="#d9c5c6"/><path d="M80.79,202.59l1.85-8.28,6.56,2-.31,1.38-4.74-1.45-.42,1.88,4.58,1.4L88,200.92l-4.58-1.4-.55,2.23L88,203.32l-.32,1.38Z" fill="#d9c5c6"/><path d="M100.88,208.73,99,208.17l-.2-6.53-3.22,5.48-1.88-.57-.33-9,1.78.55.08,6.21,3-5.26,2,.6.21,6.19,2.91-5.24,1.76.54Z" fill="#d9c5c6"/><path d="M104.05,209.7l1.85-8.28,1.82.56-1.85,8.28Z" fill="#d9c5c6"/><path d="M111.41,212l-1.82-.56,1.54-6.89-2.59-.79.31-1.39,7,2.13-.31,1.39-2.56-.78Z" fill="#d9c5c6"/><path d="M121.21,211l-3.42-1-.83,3.7-1.82-.56,1.85-8.28,1.82.56-.71,3.2,3.42,1,.71-3.19,1.82.55-1.85,8.28-1.82-.56Z" fill="#d9c5c6"/><path d="M133.87,215.63l1.84.84a3.12,3.12,0,0,1-1.61,1.79,3.62,3.62,0,0,1-2.52,0,4.75,4.75,0,0,1-2.54-1.75,5.14,5.14,0,0,1-.91-3.11,5.08,5.08,0,0,1,.61-2.58,2.9,2.9,0,0,1,1.7-1.39,4,4,0,0,1,2.36.06,4.76,4.76,0,0,1,2.33,1.48,4.35,4.35,0,0,1,1,2.41l-1.74-.36a2.56,2.56,0,0,0-.56-1.29,2.31,2.31,0,0,0-1.1-.69,2.12,2.12,0,0,0-1.41,0,2,2,0,0,0-1.05,1.11,4.36,4.36,0,0,0-.39,1.83,3.08,3.08,0,0,0,.51,1.8,2.33,2.33,0,0,0,1.27,1,1.68,1.68,0,0,0,1.29-.06A1.74,1.74,0,0,0,133.87,215.63Z" fill="#d9c5c6"/><path d="M142.18,219.4l-3.51-1.07L137.61,220l-1.87-.57,5-7.32,2,.62L144.2,222l-1.72-.53Zm-.22-1.54-.52-3.71-2.13,2.9Z" fill="#d9c5c6"/><path d="M147.17,222.88l-1.82-.55,1.85-8.28,3.93,1.2a6.18,6.18,0,0,1,1.57.69,2.83,2.83,0,0,1,.92,1,3.1,3.1,0,0,1,.34,1.45,2,2,0,0,1-.67,1.66,2.58,2.58,0,0,1-2,.28,5.73,5.73,0,0,1,.66,1,32,32,0,0,1,1.36,3.34l-2-.59c-.16-.55-.46-1.42-.92-2.62a4.19,4.19,0,0,0-.8-1.4,2.19,2.19,0,0,0-.9-.45l-.74-.22Zm1-4.67,1,.3a7,7,0,0,0,1.94.42,1.09,1.09,0,0,0,.75-.32,1,1,0,0,0,.28-.7,1.11,1.11,0,0,0-.4-.85,3,3,0,0,0-1-.46l-2-.61Z" fill="#d9c5c6"/><path d="M154.23,225l1.85-8.28,6.56,2-.31,1.38-4.74-1.45-.42,1.88,4.58,1.4-.31,1.39-4.58-1.4-.55,2.23,5.14,1.57-.31,1.38Z" fill="#d9c5c6"/><path d="M80.44,259.84v-4.61l-1.72-.52v-.62l4.14,1.27V256l-1.73-.53v4.61Z" fill="#d9c5c6"/><path d="M83.59,260.8v-5.22l.69.21v2.15l2.72.83v-2.15l.69.21v5.23l-.69-.21v-2.47l-2.72-.83V261Z" fill="#d9c5c6"/><path d="M88.27,262.23l2-4.61.75.23,2.14,5.88-.79-.24-.61-1.77-2.18-.67L89,262.46Zm1.51-1.68,1.77.54L91,259.48c-.16-.49-.29-.89-.37-1.2a5.35,5.35,0,0,1-.28.91Z" fill="#d9c5c6"/><path d="M93.7,263.9v-5.23l.71.22,2.75,4.94v-4.1l.66.2v5.22l-.71-.21L94.37,260v4.11Z" fill="#d9c5c6"/><path d="M99,265.5v-5.22l.7.21v2.59l2.59-1.8.94.29L101,263l2.28,3.81-.91-.28-1.86-3.21-.85.57v1.81Z" fill="#d9c5c6"/><path d="M107.22,268v-2.21l-2-3.63.84.25,1,1.89c.19.36.36.71.53,1.05l.57-.75,1-1.22.81.24L107.91,266v2.21Z" fill="#d9c5c6"/><path d="M110.41,266.46a2.16,2.16,0,0,1,.69-1.83,2,2,0,0,1,1.81-.18,3.52,3.52,0,0,1,1.3.74,3.42,3.42,0,0,1,.89,1.24,3.78,3.78,0,0,1,.3,1.49,2.47,2.47,0,0,1-.32,1.33,1.38,1.38,0,0,1-.91.67,2.42,2.42,0,0,1-1.27-.06,3.39,3.39,0,0,1-1.31-.76,3.71,3.71,0,0,1-1.18-2.64Zm.71.23a2.71,2.71,0,0,0,.51,1.64,2.37,2.37,0,0,0,1.27.93,1.36,1.36,0,0,0,1.29-.15,1.72,1.72,0,0,0,.5-1.41,3.25,3.25,0,0,0-.21-1.18,2.62,2.62,0,0,0-.64-.93,2.19,2.19,0,0,0-.93-.54,1.47,1.47,0,0,0-1.26.11C111.3,265.39,111.12,265.9,111.12,266.69Z" fill="#d9c5c6"/><path d="M119.72,266.63l.7.21v3a3.06,3.06,0,0,1-.18,1.19,1,1,0,0,1-.65.56,2.12,2.12,0,0,1-1.22-.08,3.39,3.39,0,0,1-1.2-.62,2.25,2.25,0,0,1-.66-.94,3.85,3.85,0,0,1-.2-1.37v-3l.69.21v3a3.48,3.48,0,0,0,.12,1,1.51,1.51,0,0,0,.44.63,2.17,2.17,0,0,0,.75.41,1.24,1.24,0,0,0,1.09,0c.22-.16.32-.57.32-1.23Z" fill="#d9c5c6"/><path d="M71.2,254.34l.16-.46a9.43,9.43,0,0,1,.83.6c0-.44-.07-.75-.08-.91l.52.16a8.31,8.31,0,0,1-.08.86,4.91,4.91,0,0,1,.84-.09l.16.56a4.3,4.3,0,0,1-.88-.07,8.73,8.73,0,0,1,.61.86l-.43.17c-.14-.23-.3-.54-.49-.92a4,4,0,0,1-.46.63l-.42-.43a5.58,5.58,0,0,1,.59-.5C71.76,254.65,71.47,254.5,71.2,254.34Z" fill="#d9c5c6"/><path d="M74,255.21l.16-.46a8.1,8.1,0,0,1,.83.6c0-.45-.07-.75-.07-.91l.51.16a7.92,7.92,0,0,1-.08.85,6.49,6.49,0,0,1,.84-.08l.17.56a4.34,4.34,0,0,1-.89-.08,9.19,9.19,0,0,1,.61.87l-.43.17c-.13-.23-.3-.54-.49-.92a4,4,0,0,1-.46.63l-.42-.44a6.52,6.52,0,0,1,.59-.49Z" fill="#d9c5c6"/><path d="M123.26,270.25l.16-.45a8.1,8.1,0,0,1,.83.6c0-.45-.07-.75-.07-.91l.51.15a6.09,6.09,0,0,1-.08.86,5.1,5.1,0,0,1,.84-.08l.17.55a3.74,3.74,0,0,1-.89-.07,10.19,10.19,0,0,1,.61.86l-.43.18c-.13-.23-.3-.54-.49-.92a3,3,0,0,1-.46.62l-.42-.43a5.12,5.12,0,0,1,.59-.49C123.83,270.57,123.54,270.41,123.26,270.25Z" fill="#d9c5c6"/><path d="M126.1,271.12l.16-.45a7,7,0,0,1,.83.59,9.05,9.05,0,0,1-.07-.91l.51.16a6.09,6.09,0,0,1-.08.86,4.28,4.28,0,0,1,.84-.08l.17.55a3.74,3.74,0,0,1-.89-.07,10.19,10.19,0,0,1,.61.86l-.43.17c-.13-.23-.3-.53-.48-.91a3.38,3.38,0,0,1-.47.62l-.42-.43a6.19,6.19,0,0,1,.59-.49C126.67,271.44,126.38,271.28,126.1,271.12Z" fill="#d9c5c6"/></svg>