<?xml version="1.0" standalone="no"?>
<!DOCTYPE svg PUBLIC "-//W3C//DTD SVG 20010904//EN"
 "http://www.w3.org/TR/2001/REC-SVG-20010904/DTD/svg10.dtd">
<svg version="1.0" xmlns="http://www.w3.org/2000/svg"
 width="700.000000pt" height="700.000000pt" viewBox="0 0 700.000000 700.000000"
 preserveAspectRatio="xMidYMid meet">
<metadata>
Created by potrace 1.14, written by Peter Selinger 2001-2017
</metadata>
<g transform="translate(0.000000,700.000000) scale(0.100000,-0.100000)"
fill="#000000" stroke="none">
<path d="M454 6985 c-192 -42 -350 -183 -423 -379 l-26 -71 0 -3035 0 -3035
23 -65 c71 -198 226 -338 424 -385 94 -22 5987 -22 6092 0 197 42 350 179 424
379 l27 71 0 3035 0 3035 -23 65 c-64 178 -194 308 -372 372 l-65 23 -3010 2
c-2483 1 -3021 -1 -3071 -12z m5146 -1374 c13 -1 15 -243 15 -2111 0 -1399 -3
-2110 -10 -2111 -5 -1 -956 -2 -2113 -3 -1395 -1 -2102 2 -2103 9 -5 44 -3
4211 2 4215 6 4 4158 5 4209 1z"/>
<path d="M2686 4221 c-476 -476 -802 -810 -795 -812 8 -3 225 -4 482 -4 l468
1 145 144 c134 134 144 141 145 114 0 -16 1 -405 2 -864 l2 -835 365 0 365 0
2 800 c1 440 2 829 3 864 l0 65 144 -144 144 -144 477 0 c262 -1 478 2 480 5
4 5 -1598 1612 -1612 1616 -5 2 -372 -361 -817 -806z"/>
</g>
</svg>
